# xmcd
#
# Track frame offsets:
# 150
# 14460
# 28142
# 41190
# 54515
# 67632
# 81700
# 96435
# 109105
# 120505
# 132317
# 145680
# 158270
# 171200
# 185632
# 200005
# 212607
# 226780
# 240170
# 254112
#
# Disc length: 3545 seconds
#
#
# Revision: 0
# Processed by: cddbd v1.5.1PL0 Copyright (c) Steve Scherf et al.
# Submitted via: FreeRIP 2.942 
#
DISCID=160dd714
DTITLE=Sarah Vaughan - Trouble is a Man, vol.2
DYEAR=1900
DGENRE=Jazz
TTITLE0=Penthouse Serenade
TTITLE1=You're Blasé
TTITLE2=Everything I Have Is Yours
TTITLE3=Body and Soul
TTITLE4=I Cover the Waterfront
TTITLE5=Tenderly
TTITLE6=Don't Blame Me
TTITLE7=Sometimes I Feel Like A Motherless Child
TTITLE8=I Can't Get Started
TTITLE9=Trouble Is A Man
TTITLE10=Love Me Or Leave Me
TTITLE11=The Man I Love
TTITLE12=I Get A Kick Out of You
TTITLE13=The One I Love Belongs to Somebody Else
TTITLE14=It's You Or No One
TTITLE15=What A Difference A Day Make
TTITLE16=Once In A While
TTITLE17=Nature Boy
TTITLE18=I'm Glad There Is You
TTITLE19=I Feel So Smoochie
EXTD=
EXTT0=
EXTT1=
EXTT2=
EXTT3=
EXTT4=
EXTT5=
EXTT6=
EXTT7=
EXTT8=
EXTT9=
EXTT10=
EXTT11=
EXTT12=
EXTT13=
EXTT14=
EXTT15=
EXTT16=
EXTT17=
EXTT18=
EXTT19=
PLAYORDER=
